<?xml version="1.0" encoding="UTF-8" standalone="no"?>
<!-- Created with Inkscape (http://www.inkscape.org/) -->

<!-- This Source Code Form is subject to the terms of the Mozilla Public
   - License, v. 2.0. If a copy of the MPL was not distributed with this
   - file, You can obtain one at http://mozilla.org/MPL/2.0/. -->

<svg
   xmlns:dc="http://purl.org/dc/elements/1.1/"
   xmlns:cc="http://creativecommons.org/ns#"
   xmlns:rdf="http://www.w3.org/1999/02/22-rdf-syntax-ns#"
   xmlns:svg="http://www.w3.org/2000/svg"
   xmlns="http://www.w3.org/2000/svg"
   xmlns:sodipodi="http://sodipodi.sourceforge.net/DTD/sodipodi-0.dtd"
   xmlns:inkscape="http://www.inkscape.org/namespaces/inkscape"
   width="16"
   height="16"
   viewBox="0 0 16 16"
   id="svg1"
   version="1.1"
   inkscape:version="0.92.3 (2405546, 2018-03-11)"
   sodipodi:docname="action-icon-warning.svg"
   inkscape:export-xdpi="96"
   inkscape:export-ydpi="96">
  <defs
     id="defs4" />
  <sodipodi:namedview
     id="base"
     pagecolor="#ffffff"
     bordercolor="#666666"
     borderopacity="1.0"
     inkscape:pageopacity="0.0"
     inkscape:pageshadow="2"
     inkscape:zoom="0.35"
     inkscape:cx="375"
     inkscape:cy="520"
     inkscape:document-units="px"
     units="px"
     inkscape:current-layer="layer1"
     showgrid="true"
     gridtolerance="10"
     objecttolerance="10"
     guidetolerance="10"
     inkscape:snap-bbox="true"
     inkscape:bbox-paths="true"
     inkscape:bbox-nodes="true"
     inkscape:snap-bbox-midpoints="true"
     inkscape:object-paths="true"
     inkscape:snap-intersection-paths="true"
     inkscape:object-nodes="true"
     inkscape:snap-smooth-nodes="true"
     inkscape:snap-object-midpoints="true"
     inkscape:snap-center="true"
     inkscape:snap-text-baseline="true"
     inkscape:snap-page="true"
     showborder="false"
     showguides="true"
     inkscape:guide-bbox="true">
    <inkscape:grid
       type="xygrid"
       id="grid7" />
    <inkscape:grid
       type="xygrid"
       id="grid819"
       dotted="true"
       spacingx="1"
       originx="0.5"
       originy="0.5" />
    <sodipodi:guide
       position="0,19"
       orientation="1,0"
       id="guide833"
       inkscape:locked="false" />
    <sodipodi:guide
       position="16,0"
       orientation="1,0"
       id="guide835"
       inkscape:locked="false" />
    <sodipodi:guide
       position="0,0"
       orientation="0,1"
       id="guide837"
       inkscape:locked="false" />
    <sodipodi:guide
       position="16,16"
       orientation="0,1"
       id="guide839"
       inkscape:locked="false" />
  </sodipodi:namedview>
  <metadata
     id="metadata7">
    <rdf:RDF>
      <cc:Work
         rdf:about="">
        <dc:format>image/svg+xml</dc:format>
        <dc:type
           rdf:resource="http://purl.org/dc/dcmitype/StillImage" />
        <dc:title />
        <cc:license
           rdf:resource="http://mozilla.org/MPL/2.0/" />
      </cc:Work>
    </rdf:RDF>
  </metadata>
  <g
     inkscape:label="Layer 1"
     inkscape:groupmode="layer"
     id="layer1">
    <path
       style="fill:#666666"
       d="m 0.5,1 a 0.5,0.5 0 0 0 -0.5,0.5 v 6 a 0.5,0.5 0 0 0 0.5,0.5 h 15 a 0.5,0.5 0 0 0 0.5,-0.5 v -6 a 0.5,0.5 0 0 0 -0.5,-0.5 z m 0.5,1 h 4 v 5 h -4 z m 5,0 h 4 v 5 h -4 z m 5,0 h 4 v 5 h -4 z"
       id="rect9" />
    <rect
       style="fill:#666666"
       id="rect821"
       width="16"
       height="5"
       x="0"
       y="9"
       rx="1"
       ry="1" />
    <path
       inkscape:connector-curvature="0"
       style="fill:#ffffff"
       d="m 10.5,4 c -0.7,0 -1.4,0.4 -1.7,1.2 l -3.5,6.8 c -0.4,0.7 -0.4,1.4 0,2 0.4,0.6 1,1 1.8,1 h 6.9 c 0.8,0 1.4,-0.4 1.8,-1 0.3,-0.6 0.3,-1.4 0,-2 l -3.5,-6.8 c -0.4,-0.8 -1.1,-1.2 -1.8,-1.2 z"
       id="path20" />
    <path
       inkscape:connector-curvature="0"
       style="fill:#ffbf00"
       d="m 14.8,12.4 -3.5,-6.8 c -0.1,-0.4 -0.4,-0.6 -0.8,-0.6 -0.3,0 -0.7,0.2 -0.9,0.6 l -3.5,6.8 c -0.2,0.4 -0.2,0.8 0,1.1 0.2,0.3 0.5,0.5 0.9,0.5 h 7 c 0.4,0 0.7,-0.2 0.9,-0.5 0.2,-0.3 0.1,-0.7 -0.1,-1.1 z"
       id="path22" />
    <path
       inkscape:connector-curvature="0"
       style="fill:#ffffff"
       d="m 10,7.5 c 0,-0.3 0.2,-0.5 0.5,-0.5 0.3,0 0.5,0.2 0.5,0.5 l -0.2,2.5 h -0.6 z"
       id="path24" />
    <circle
       style="fill:#ffffff"
       cx="10.5"
       cy="11.5"
       r="0.75"
       id="circle26" />
  </g>
</svg>
